<svg width="25" height="25" viewBox="0 0 25 25" fill="none" xmlns="http://www.w3.org/2000/svg">
<g clip-path="url(#clip0_386_631)">
<path d="M12.4998 1.38867C10.3022 1.38867 8.154 2.04033 6.32679 3.26123C4.49957 4.48214 3.07543 6.21745 2.23446 8.24774C1.39349 10.278 1.17345 12.5121 1.60217 14.6675C2.0309 16.8228 3.08913 18.8026 4.64305 20.3565C6.19696 21.9104 8.17677 22.9687 10.3321 23.3974C12.4875 23.8261 14.7215 23.6061 16.7518 22.7651C18.7821 21.9241 20.5174 20.5 21.7383 18.6728C22.9592 16.8456 23.6109 14.6974 23.6109 12.4998C23.6109 9.55293 22.4403 6.72678 20.3565 4.64304C18.2728 2.5593 15.4466 1.38867 12.4998 1.38867ZM12.4998 22.222C10.5769 22.222 8.69722 21.6518 7.09841 20.5835C5.4996 19.5152 4.25348 17.9968 3.51763 16.2203C2.78177 14.4438 2.58924 12.489 2.96438 10.6031C3.33951 8.71714 4.26546 6.98481 5.62514 5.62513C6.98482 4.26546 8.71715 3.3395 10.6031 2.96437C12.489 2.58924 14.4438 2.78177 16.2203 3.51762C17.9968 4.25347 19.5152 5.49959 20.5835 7.09841C21.6518 8.69722 22.222 10.5769 22.222 12.4998C22.222 15.0783 21.1977 17.5512 19.3744 19.3744C17.5512 21.1977 15.0783 22.222 12.4998 22.222Z" fill="white"/>
<path d="M13.1389 12.7775V7.46495C13.1389 7.28077 13.0657 7.10414 12.9355 6.97391C12.8053 6.84367 12.6286 6.77051 12.4444 6.77051C12.2603 6.77051 12.0836 6.84367 11.9534 6.97391C11.8232 7.10414 11.75 7.28077 11.75 7.46495V13.5205L15.8472 16.2983C15.9227 16.3551 16.009 16.3958 16.1007 16.4181C16.1925 16.4404 16.2878 16.4438 16.381 16.4279C16.4741 16.4121 16.563 16.3775 16.6422 16.3261C16.7215 16.2748 16.7894 16.2078 16.8419 16.1293C16.8944 16.0508 16.9304 15.9624 16.9475 15.8696C16.9647 15.7767 16.9627 15.6813 16.9418 15.5892C16.9208 15.4971 16.8813 15.4103 16.8257 15.334C16.77 15.2577 16.6994 15.1936 16.6181 15.1455L13.1389 12.7775Z" fill="white"/>
<path d="M5.55536 12.4587C5.54901 11.2094 5.88182 9.98182 6.5183 8.90682C7.15478 7.83182 8.07107 6.9497 9.16948 6.35452C10.2679 5.75934 11.5072 5.47342 12.7554 5.52723C14.0035 5.58104 15.2136 5.97257 16.2567 6.66007L16.847 5.71563C15.8562 5.0666 14.734 4.64507 13.5609 4.48132C12.3878 4.31757 11.193 4.41566 10.0623 4.76855C8.93166 5.12143 7.89318 5.72036 7.02149 6.52229C6.1498 7.32423 5.46654 8.30927 5.0208 9.40665C4.57505 10.504 4.37788 11.6865 4.44345 12.8692C4.50903 14.0518 4.83571 15.2052 5.40004 16.2466C5.96437 17.288 6.75234 18.1915 7.70734 18.8921C8.66234 19.5928 9.76066 20.0732 10.9234 20.299L11.1109 19.2365C9.54701 18.9172 8.14082 18.069 7.12897 16.8346C6.11713 15.6001 5.56142 14.0548 5.55536 12.4587Z" fill="white"/>
</g>
<defs>
<clipPath id="clip0_386_631">
<rect width="25" height="25" fill="white"/>
</clipPath>
</defs>
</svg>
