<svg width="100" height="26" fill="none" xmlns="http://www.w3.org/2000/svg"><g clip-path="url(#a)"><path d="m99.49 11.324-9.67-9.671C88.592.426 87.328 0 85.36 0H1.741C.782 0 0 .782 0 1.74v21.63c0 .959.782 1.741 1.74 1.741h83.621c1.968 0 3.232-.426 4.458-1.653l9.672-9.671a1.743 1.743 0 0 0 0-2.458v-.005Z" fill="#702082"/><path d="M8.556 17.527V7.578h3.86c3.44 0 4.857 1.93 4.857 4.972 0 3.042-1.412 4.973-4.856 4.973H8.556v.004Zm3.8-1.967c2.07 0 2.686-1.232 2.686-3.005s-.616-3.005-2.685-3.005h-1.574v6.01h1.574ZM27.05 13.448h-4.717v2.112h5.352v1.967h-7.579V7.578h7.58v1.968h-5.353v1.967h4.718V13.448ZM37.829 17.527l-5.056-6.329.102 6.33h-2.227v-9.95H32.5l5.074 6.329-.12-6.329h2.227v9.95h-1.852ZM47.648 9.55v7.977h-2.227V9.552H42.26V7.583h8.556v1.968h-3.167ZM57.597 7.342c3.482 0 4.972 1.93 4.972 5.213 0 3.282-1.49 5.213-4.972 5.213-3.481 0-4.972-1.93-4.972-5.213 0-3.283 1.49-5.213 4.972-5.213Zm0 1.93c-2.088 0-2.727 1.255-2.727 3.283 0 2.027.64 3.282 2.727 3.282 2.088 0 2.727-1.255 2.727-3.282 0-2.028-.634-3.283-2.727-3.283ZM72.56 17.527l-5.055-6.329.102 6.33H65.38v-9.95h1.852l5.074 6.329-.12-6.329h2.226v9.95H72.56ZM79.495 10.523c0 .736.556.893 1.991 1.014 2.986.259 3.88.893 3.88 3.004 0 1.792-1.153 3.223-4.436 3.223-.995 0-2.745-.26-3.444-.58v-2.008c.796.319 2.13.597 3.463.597 1.63 0 2.208-.417 2.208-1.236 0-.82-.518-1.056-1.949-1.176-2.986-.26-3.88-.917-3.88-2.843s1.232-3.185 4.181-3.185c.995 0 2.546.18 3.403.556v2.009c-.894-.338-2.111-.579-3.421-.579-1.473 0-1.991.357-1.991 1.195l-.005.009Z" fill="#fff"/></g><defs><clipPath id="a"><path fill="#fff" d="M0 0h100v25.111H0z"/></clipPath></defs></svg>