<svg width="25" height="25" fill="none" xmlns="http://www.w3.org/2000/svg"><g clip-path="url(#a)" fill="#fff"><path d="M12.5 1.389a11.111 11.111 0 1 0 0 22.222 11.111 11.111 0 0 0 0-22.222Zm0 20.833a9.722 9.722 0 1 1 0-19.444 9.722 9.722 0 0 1 0 19.444Z"/><path d="M13.139 12.777V7.465a.695.695 0 0 0-1.389 0v6.056l4.097 2.777a.695.695 0 1 0 .771-1.152l-3.48-2.369Z"/><path d="M5.555 12.459A6.903 6.903 0 0 1 16.257 6.66l.59-.944a8.02 8.02 0 1 0-5.924 14.583l.188-1.063a6.945 6.945 0 0 1-5.556-6.777Z"/></g><defs><clipPath id="a"><path fill="#fff" d="M0 0h25v25H0z"/></clipPath></defs></svg>