<svg width="68" height="20" viewBox="0 0 68 20" fill="none" xmlns="http://www.w3.org/2000/svg">
<path d="M58.39 19.7142L68 10.0542L58.39 0.394159C58.3032 0.280186 58.1929 0.18619 58.0667 0.118536C57.9404 0.0508828 57.8011 0.0111505 57.6581 0.00202883C57.5151 -0.00709283 57.3719 0.0146097 57.238 0.0656665C57.1042 0.116723 56.9828 0.195943 56.8823 0.297962C56.7817 0.399981 56.7042 0.522417 56.6551 0.656983C56.6059 0.791548 56.5863 0.935101 56.5975 1.07792C56.6086 1.22074 56.6503 1.3595 56.7198 1.4848C56.7892 1.61009 56.8848 1.719 57 1.80416L64.19 9.05416L1.52539 9.31937C1.26018 9.31937 1.00582 9.42473 0.818283 9.61227C0.630745 9.7998 0.52539 10.0542 0.52539 10.3194C0.52539 10.5846 0.630744 10.8389 0.818283 11.0265C1.00582 11.214 1.26018 11.3194 1.52539 11.3194L64.19 11.0542L57 18.3042C56.813 18.4925 56.7085 18.7473 56.7094 19.0127C56.7104 19.2781 56.8167 19.5322 57.005 19.7192C57.1933 19.9061 57.4482 20.0107 57.7135 20.0097C57.9789 20.0088 58.233 19.9025 58.42 19.7142L58.39 19.7142Z" fill="white"/>
</svg>
